<svg width="72" height="48" viewBox="0 0 72 48" fill="none" xmlns="http://www.w3.org/2000/svg">
<mask id="mask0_4_2" style="mask-type:alpha" maskUnits="userSpaceOnUse" x="0" y="0" width="72" height="48">
<path d="M0 39.1676C0 35.6597 2.84366 32.8161 6.35149 32.8161C9.85933 32.8161 12.703 35.6597 12.703 39.1676V47.6362H0V39.1676Z" fill="#D9D9D9"/>
<path d="M59.2806 39.1676C59.2806 35.6597 62.1243 32.8161 65.6321 32.8161C69.1399 32.8161 71.9836 35.6597 71.9836 39.1676V47.6362H59.2806V39.1676Z" fill="#D9D9D9"/>
<path d="M44.4605 24.3474C44.4605 20.8396 47.3041 17.9959 50.812 17.9959C54.3198 17.9959 57.1635 20.8396 57.1635 24.3474V47.6362H44.4605V24.3474Z" fill="#D9D9D9"/>
<path d="M29.6403 6.35149C29.6403 2.84366 32.484 0 35.9918 0C39.4996 0 42.3433 2.84366 42.3433 6.3515V47.6362H29.6403V6.35149Z" fill="#D9D9D9"/>
<path d="M14.8202 24.3474C14.8202 20.8396 17.6638 17.9959 21.1716 17.9959C24.6795 17.9959 27.5231 20.8396 27.5231 24.3474V47.6362H14.8202V24.3474Z" fill="#D9D9D9"/>
</mask>
<g mask="url(#mask0_4_2)">
<path d="M-0.128828 0H73.6225V47.6362H-0.128828V0Z" fill="url(#paint0_linear_4_2)"/>
</g>
<defs>
<linearGradient id="paint0_linear_4_2" x1="-9.89004" y1="23.8181" x2="110.498" y2="23.8181" gradientUnits="userSpaceOnUse">
<stop stop-color="#8BB5FF"/>
<stop offset="0.333333" stop-color="#B6D8FF"/>
<stop offset="0.666667" stop-color="#CCEAFF"/>
<stop offset="1" stop-color="#E1FBFF"/>
</linearGradient>
</defs>
</svg>
