<svg width="259" height="49" viewBox="0 0 259 49" fill="none" xmlns="http://www.w3.org/2000/svg">
<mask id="mask0_1_41" style="mask-type:alpha" maskUnits="userSpaceOnUse" x="0" y="0" width="73" height="48">
<path d="M0.128828 39.2497C0.128828 35.7418 2.97249 32.8982 6.48032 32.8982C9.98816 32.8982 12.8318 35.7418 12.8318 39.2497V47.7183H0.128828V39.2497Z" fill="#D9D9D9"/>
<path d="M59.4094 39.2497C59.4094 35.7418 62.2531 32.8982 65.7609 32.8982C69.2688 32.8982 72.1124 35.7418 72.1124 39.2497V47.7183H59.4094V39.2497Z" fill="#D9D9D9"/>
<path d="M44.5893 24.4295C44.5893 20.9217 47.433 18.078 50.9408 18.078C54.4486 18.078 57.2923 20.9217 57.2923 24.4295V47.7183H44.5893V24.4295Z" fill="#D9D9D9"/>
<path d="M29.7691 6.4336C29.7691 2.92577 32.6128 0.0821075 36.1206 0.0821075C39.6285 0.0821075 42.4721 2.92577 42.4721 6.4336V47.7183H29.7691V6.4336Z" fill="#D9D9D9"/>
<path d="M14.949 24.4295C14.949 20.9217 17.7926 18.078 21.3005 18.078C24.8083 18.078 27.652 20.9217 27.652 24.4295V47.7183H14.949V24.4295Z" fill="#D9D9D9"/>
</mask>
<g mask="url(#mask0_1_41)">
<path d="M0 0.0821075H73.7514V47.7183H0V0.0821075Z" fill="url(#paint0_linear_1_41)"/>
</g>
<path d="M107.642 37.8966V47.7183H103.269C95.2173 47.7183 91.1914 43.7169 91.1914 35.714V28.0229H87.5472V18.4091H91.1914V11.3416H102.749V18.4091H107.538V28.0229H102.749V35.9219C102.749 36.6148 102.905 37.1171 103.217 37.4289C103.564 37.7407 104.12 37.8966 104.883 37.8966H107.642Z" fill="#81B3FF"/>
<path d="M110.482 33.0637C110.482 29.9803 111.003 27.3127 112.044 25.0608C113.12 22.7743 114.577 21.0421 116.417 19.8641C118.256 18.6516 120.321 18.0453 122.612 18.0453C124.521 18.0453 126.169 18.4437 127.558 19.2405C128.946 20.0027 130.004 21.0594 130.733 22.4105V18.4091H142.238V47.7183H130.733V43.7169C130.004 45.068 128.946 46.142 127.558 46.9388C126.169 47.701 124.521 48.0821 122.612 48.0821C120.321 48.0821 118.256 47.4932 116.417 46.3152C114.577 45.1027 113.12 43.3705 112.044 41.1186C111.003 38.832 110.482 36.1471 110.482 33.0637ZM130.733 33.0637C130.733 31.5047 130.334 30.2922 129.536 29.426C128.738 28.5599 127.714 28.1269 126.464 28.1269C125.215 28.1269 124.191 28.5599 123.393 29.426C122.595 30.2922 122.195 31.5047 122.195 33.0637C122.195 34.6227 122.595 35.8353 123.393 36.7014C124.191 37.5675 125.215 38.0006 126.464 38.0006C127.714 38.0006 128.738 37.5675 129.536 36.7014C130.334 35.8353 130.733 34.6227 130.733 33.0637Z" fill="#81B3FF"/>
<path d="M160.495 48.0821C157.719 48.0821 155.254 47.6317 153.103 46.731C150.986 45.8302 149.302 44.583 148.053 42.9894C146.803 41.3957 146.092 39.5942 145.918 37.5848H157.007C157.146 38.4509 157.51 39.0919 158.1 39.5076C158.725 39.9233 159.506 40.1312 160.443 40.1312C161.033 40.1312 161.502 40.0099 161.849 39.7674C162.196 39.4903 162.369 39.1611 162.369 38.7801C162.369 38.1218 162.005 37.6541 161.276 37.377C160.547 37.0998 159.315 36.788 157.58 36.4416C155.463 36.0258 153.71 35.5754 152.322 35.0904C150.968 34.6054 149.771 33.7739 148.73 32.596C147.723 31.4181 147.22 29.7898 147.22 27.7111C147.22 25.9096 147.688 24.2813 148.626 22.8263C149.597 21.3365 151.02 20.1759 152.894 19.3445C154.769 18.4784 157.042 18.0453 159.714 18.0453C163.671 18.0453 166.76 19.0154 168.981 20.9554C171.237 22.8955 172.59 25.4246 173.042 28.5426H162.786C162.612 27.7458 162.248 27.1395 161.693 26.7238C161.137 26.2734 160.391 26.0482 159.454 26.0482C158.864 26.0482 158.413 26.1695 158.1 26.412C157.788 26.6198 157.632 26.949 157.632 27.3993C157.632 27.9883 157.996 28.4387 158.725 28.7505C159.454 29.0276 160.617 29.3221 162.213 29.6339C164.33 30.0496 166.118 30.5173 167.575 31.037C169.033 31.5567 170.3 32.4574 171.376 33.7393C172.452 34.9865 172.989 36.7187 172.989 38.936C172.989 40.6682 172.486 42.2272 171.48 43.613C170.473 44.9988 169.016 46.0901 167.107 46.8869C165.233 47.6837 163.029 48.0821 160.495 48.0821Z" fill="#81B3FF"/>
<path d="M196.37 47.7183L189.133 36.0258V47.7183H177.576V9.26292H189.133V29.3741L196.474 18.4091H209.905L198.921 33.1676L210.165 47.7183H196.37Z" fill="#81B3FF"/>
<path d="M218.588 16.0706C216.575 16.0706 214.961 15.5336 213.746 14.4596C212.531 13.3856 211.924 12.0345 211.924 10.4062C211.924 8.74326 212.531 7.3748 213.746 6.30082C214.961 5.19219 216.575 4.63788 218.588 4.63788C220.566 4.63788 222.163 5.19219 223.377 6.30082C224.592 7.3748 225.199 8.74326 225.199 10.4062C225.199 12.0345 224.592 13.3856 223.377 14.4596C222.163 15.5336 220.566 16.0706 218.588 16.0706ZM224.314 18.4091V47.7183H212.757V18.4091H224.314Z" fill="#81B3FF"/>
<path d="M243.486 48.0821C240.536 48.0821 237.881 47.4758 235.521 46.2633C233.161 45.0507 231.304 43.3185 229.951 41.0666C228.632 38.7801 227.972 36.1124 227.972 33.0637C227.972 30.015 228.632 27.3647 229.951 25.1128C231.304 22.8263 233.161 21.0767 235.521 19.8641C237.881 18.6516 240.536 18.0453 243.486 18.0453C246.436 18.0453 249.091 18.6516 251.451 19.8641C253.811 21.0767 255.651 22.8263 256.97 25.1128C258.323 27.3647 259 30.015 259 33.0637C259 36.1124 258.323 38.7801 256.97 41.0666C255.651 43.3185 253.811 45.0507 251.451 46.2633C249.091 47.4758 246.436 48.0821 243.486 48.0821ZM243.486 38.1045C244.562 38.1045 245.464 37.6888 246.193 36.8573C246.922 35.9912 247.287 34.7266 247.287 33.0637C247.287 31.4008 246.922 30.1536 246.193 29.3221C245.464 28.456 244.562 28.0229 243.486 28.0229C242.41 28.0229 241.508 28.456 240.779 29.3221C240.05 30.1536 239.686 31.4008 239.686 33.0637C239.686 34.7266 240.033 35.9912 240.727 36.8573C241.456 37.6888 242.376 38.1045 243.486 38.1045Z" fill="#81B3FF"/>
<defs>
<linearGradient id="paint0_linear_1_41" x1="-9.76121" y1="23.9002" x2="110.627" y2="23.9002" gradientUnits="userSpaceOnUse">
<stop stop-color="#8BB5FF"/>
<stop offset="0.333333" stop-color="#B6D8FF"/>
<stop offset="0.666667" stop-color="#CCEAFF"/>
<stop offset="1" stop-color="#E1FBFF"/>
</linearGradient>
</defs>
</svg>
